<svg xmlns="http://www.w3.org/2000/svg" xmlns:svg="http://www.w3.org/2000/svg" id="svg140" width="297mm" height="210mm" version="1.1" viewBox="0 0 297 210"><metadata id="metadata137"/><g id="layer1" transform="translate(0,-87)"><g id="g260" transform="matrix(2.1821019,0,0,2.1821019,-1791.3886,172.40005)"><g id="g12" transform="matrix(0.35277777,0,0,-0.35277777,888.99975,-5.1289648)"><path id="path14" d="M 0,0 -34.641,-20 V -60 L 0,-80 34.641,-60 v 40 z" style="fill:#ff9dc3;fill-opacity:1;fill-rule:nonzero;stroke:none"/></g><g id="g16" transform="matrix(0.35277777,0,0,-0.35277777,913.44097,-5.1289648)"><path id="path18" d="M 0,0 V 40 L -34.641,20 Z" style="fill:#ff9dc3;fill-opacity:1;fill-rule:nonzero;stroke:none"/></g><g id="g20" transform="matrix(0.35277777,0,0,-0.35277777,864.55871,8.9821452)"><path id="path22" d="M 0,0 V 40 L -34.641,20 Z" style="fill:#ff9dc3;fill-opacity:1;fill-rule:nonzero;stroke:none"/></g><g id="g24" transform="matrix(0.35277777,0,0,-0.35277777,901.22036,44.259915)"><path id="path26" d="M 0,0 V 40 L -34.641,20 Z" style="fill:#ff9dc3;fill-opacity:1;fill-rule:nonzero;stroke:none"/></g><g id="g28" transform="matrix(0.35277777,0,0,-0.35277777,864.55871,-19.240079)"><path id="path30" d="m 0,0 v -40 l 34.641,20 z" style="fill:#ff9dc3;fill-opacity:1;fill-rule:nonzero;stroke:none"/></g><g id="g32" transform="matrix(0.35277777,0,0,-0.35277777,913.44097,-5.1289648)"><path id="path34" d="m 0,0 v -40 l 34.641,20 z" style="fill:#ff9dc3;fill-opacity:1;fill-rule:nonzero;stroke:none"/></g><g id="g36" transform="matrix(0.35277777,0,0,-0.35277777,876.77932,30.148805)"><path id="path38" d="m 0,0 v -40 l 34.641,20 z" style="fill:#ff9dc3;fill-opacity:1;fill-rule:nonzero;stroke:none"/></g><g id="g40" transform="matrix(0.35277777,0,0,-0.35277777,876.77932,-26.295635)"><path id="path42" d="M 0,0 -34.641,-20 0,-40 34.641,-20 Z" style="fill:#ff0089;fill-opacity:1;fill-rule:nonzero;stroke:none"/></g><g id="g44" transform="matrix(0.35277777,0,0,-0.35277777,913.44097,-19.240079)"><path id="path46" d="M 0,0 -34.641,20 -69.282,0 -34.641,-20 Z" style="fill:#ff0089;fill-opacity:1;fill-rule:nonzero;stroke:none"/></g><g id="g48" transform="matrix(0.35277777,0,0,-0.35277777,901.22036,1.9265852)"><path id="path50" d="m 0,0 v 0 -40 l 34.641,20 V 20 L 0,40 -34.641,20 Z" style="fill:#ff0089;fill-opacity:1;fill-rule:nonzero;stroke:none"/></g><g id="g52" transform="matrix(0.35277777,0,0,-0.35277777,876.77932,1.9265852)"><path id="path54" d="M 0,0 34.641,20 0,40 -34.641,20 V -20 L 0,-40 Z" style="fill:#ff0089;fill-opacity:1;fill-rule:nonzero;stroke:none"/></g><g id="g56" transform="matrix(0.35277777,0,0,-0.35277777,901.22036,44.259915)"><path id="path58" d="M 0,0 34.641,20 V 60 L 0,40 Z" style="fill:#ff0089;fill-opacity:1;fill-rule:nonzero;stroke:none"/></g><g id="g60" transform="matrix(0.35277777,0,0,-0.35277777,913.44097,8.9821452)"><path id="path62" d="m 0,0 v -40 l 34.641,20 0.001,40 z" style="fill:#ff0089;fill-opacity:1;fill-rule:nonzero;stroke:none"/></g><g id="g64" transform="matrix(0.35277777,0,0,-0.35277777,864.55871,37.204365)"><path id="path66" d="M 0,0 34.641,-20 V 20 L 0,40 Z" style="fill:#ff0089;fill-opacity:1;fill-rule:nonzero;stroke:none"/></g><g id="g68" transform="matrix(0.35277777,0,0,-0.35277777,852.3381,1.9265852)"><path id="path70" d="m 0,0 v -40 l 34.641,-20 v 40 z" style="fill:#ff0089;fill-opacity:1;fill-rule:nonzero;stroke:none"/></g><g id="g72" transform="matrix(0.35277777,0,0,-0.35277777,888.99975,23.093255)"><path id="path74" d="M 0,0 -34.641,20 V -20 L 0,-40 34.641,-20 v 40 z" style="fill:#ff0089;fill-opacity:1;fill-rule:nonzero;stroke:none"/></g><g id="g76" transform="matrix(0.35277777,0,0,-0.35277777,901.22036,-12.184525)"><path id="path78" d="M 0,0 -34.641,20 -69.282,0 -34.641,-20 Z" style="fill:#fff;fill-opacity:1;fill-rule:nonzero;stroke:none"/></g><g id="g80" transform="matrix(0.35277777,0,0,-0.35277777,913.44097,8.9821452)"><path id="path82" d="M 0,0 -34.641,-20 V -60 L 0,-40 Z" style="fill:#fff;fill-opacity:1;fill-rule:nonzero;stroke:none"/></g><g id="g84" transform="matrix(0.35277777,0,0,-0.35277777,864.55871,8.9821452)"><path id="path86" d="M 0,0 34.641,-20 V -60 L 0,-40 Z" style="fill:#fff;fill-opacity:1;fill-rule:nonzero;stroke:none"/></g></g></g></svg>